<svg xmlns="http://www.w3.org/2000/svg" width="1200" height="675" viewBox="0 0 1200 675" role="img" aria-labelledby="title desc">
  <title id="title">Satellite intelligence for urban subsidence risk</title>
  <desc id="desc">A dark geospatial intelligence graphic with a satellite, city grid, and subsidence risk contours.</desc>
  <rect width="1200" height="675" fill="#050806"/>
  <circle cx="935" cy="145" r="62" fill="#f5fff8" opacity=".08"/>
  <g stroke="#8bd6a8" stroke-width="3" fill="none">
    <path d="M835 130 L913 95 L995 132 L918 170 Z"/>
    <path d="M913 95 L918 170"/>
    <path d="M868 151 L728 318"/>
    <path d="M970 154 L1090 320"/>
  </g>
  <g transform="translate(86 260)">
    <path d="M0 285 C140 210 280 250 410 185 C565 108 700 185 855 118 C945 78 1005 96 1070 60" fill="none" stroke="#f5fff8" stroke-width="2" opacity=".45"/>
    <path d="M0 335 C142 260 284 300 420 230 C590 142 725 225 875 150 C960 108 1015 128 1070 98" fill="none" stroke="#8bd6a8" stroke-width="4"/>
    <g fill="#101b15" stroke="#2a5c45" stroke-width="2">
      <rect x="130" y="180" width="86" height="130"/>
      <rect x="238" y="140" width="70" height="170"/>
      <rect x="330" y="205" width="110" height="105"/>
      <rect x="475" y="105" width="82" height="205"/>
      <rect x="585" y="160" width="126" height="150"/>
      <rect x="748" y="120" width="90" height="190"/>
    </g>
    <g stroke="#f5fff8" opacity=".28">
      <path d="M90 0 V360"/>
      <path d="M210 0 V360"/>
      <path d="M330 0 V360"/>
      <path d="M450 0 V360"/>
      <path d="M570 0 V360"/>
      <path d="M690 0 V360"/>
      <path d="M810 0 V360"/>
      <path d="M930 0 V360"/>
      <path d="M0 80 H1070"/>
      <path d="M0 160 H1070"/>
      <path d="M0 240 H1070"/>
      <path d="M0 320 H1070"/>
    </g>
    <ellipse cx="648" cy="238" rx="190" ry="74" fill="none" stroke="#8bd6a8" stroke-width="5"/>
    <ellipse cx="648" cy="238" rx="105" ry="40" fill="#8bd6a8" opacity=".14"/>
  </g>
  <text x="86" y="112" fill="#f5fff8" font-family="Alliance No. 1, Alliance No. 2, Helvetica Neue, Arial, sans-serif" font-size="32" font-weight="700">Satellite Intelligence</text>
  <text x="86" y="151" fill="#8bd6a8" font-family="Alliance No. 2, Alliance No. 1, Helvetica Neue, Arial, sans-serif" font-size="18">Urban subsidence risk, infrastructure resilience, and geospatial decision systems</text>
</svg>
