<svg xmlns="http://www.w3.org/2000/svg" width="1200" height="620" viewBox="0 0 1200 620" role="img" aria-labelledby="title desc">
  <title id="title">World map</title>
  <desc id="desc">A simplified equirectangular world map with continent silhouettes.</desc>
  <rect width="1200" height="620" fill="#050806"/>
  <g stroke="#203528" stroke-width="1">
    <path d="M0 103.3H1200M0 206.7H1200M0 310H1200M0 413.3H1200M0 516.7H1200"/>
    <path d="M120 0V620M240 0V620M360 0V620M480 0V620M600 0V620M720 0V620M840 0V620M960 0V620M1080 0V620"/>
  </g>
  <g fill="#173225" stroke="#8bd6a8" stroke-width="2" opacity="0.9">
    <path d="M214 153l-40 20-46 7-35 30 16 29 46-4 25 19 10 38 34 16 23 31 33 2 30-27-7-39 25-29-3-41-38-33-46-6-27-13z"/>
    <path d="M289 338l-27 24 14 42 27 38 8 55 36 42 27-35-12-52 23-40-21-39-34-22-41-13z"/>
    <path d="M505 167l-43 7-35 32-2 35 36 18 45-8 27 16 42-9 27-34-24-31-38-6-35-20z"/>
    <path d="M548 279l-47 20-23 43 14 45 38 31 25 55 36 52 42-8 9-47-18-45 28-34 44-10 25-41-18-43-48-18-51 11-56-11z"/>
    <path d="M674 162l65-21 79 18 46 39-9 40-62 8-34 38 22 47-34 34-50-12-25-55-52-18-14-53 68-65z"/>
    <path d="M858 249l55 2 37 36-11 52-42 20-52-22-18-45 31-43z"/>
    <path d="M919 164l74-5 55 28 45 44-7 45-65 5-48-28-48 8-34-38 28-59z"/>
    <path d="M1004 401l48 16 54 43-21 58-61 27-45-24-24-55 49-65z"/>
  </g>
  <g fill="#8bd6a8">
    <circle cx="244" cy="238" r="6"/>
    <circle cx="524" cy="220" r="6"/>
    <circle cx="801" cy="294" r="6"/>
    <circle cx="916" cy="230" r="6"/>
    <circle cx="1026" cy="472" r="6"/>
  </g>
</svg>
